<?xml version="1.0" standalone="no"?>
<!DOCTYPE svg PUBLIC "-//W3C//DTD SVG 20010904//EN"
 "http://www.w3.org/TR/2001/REC-SVG-20010904/DTD/svg10.dtd">
<svg version="1.0" xmlns="http://www.w3.org/2000/svg"
 width="500.000000pt" height="500.000000pt" viewBox="0 0 500.000000 500.000000"
 preserveAspectRatio="xMidYMid meet">

<g transform="translate(0.000000,500.000000) scale(0.100000,-0.100000)"
fill="#000000" stroke="none">
<path d="M760 2500 l0 -480 1740 0 1740 0 0 480 0 480 -1740 0 -1740 0 0 -480z
m3450 0 l0 -450 -1715 0 -1715 0 0 450 0 450 1715 0 1715 0 0 -450z"/>
<path d="M850 2500 l0 -390 825 0 825 0 0 390 0 390 -825 0 -825 0 0 -390z
m468 124 c24 -17 31 -71 10 -92 -9 -9 -8 -16 5 -30 26 -29 22 -77 -9 -101 -21
-17 -41 -21 -95 -21 l-69 0 0 130 0 130 68 0 c45 0 75 -5 90 -16z m280 0 c24
-17 31 -71 10 -92 -9 -9 -8 -16 5 -30 26 -29 22 -77 -9 -101 -21 -17 -41 -21
-95 -21 l-69 0 0 130 0 130 68 0 c45 0 75 -5 90 -16z m152 -39 c0 -55 0 -55
31 -55 45 0 64 14 79 60 13 38 33 60 46 48 7 -7 -25 -90 -42 -109 -14 -16 -13
-23 20 -79 20 -34 36 -63 36 -66 0 -2 -8 -4 -17 -4 -11 0 -30 22 -51 60 -30
55 -35 60 -67 60 l-35 0 0 -60 c0 -47 -3 -60 -15 -60 -13 0 -15 21 -15 130 0
109 2 130 15 130 12 0 15 -13 15 -55z m309 4 l34 -50 35 50 c21 30 43 51 54
51 16 0 12 -9 -22 -59 -22 -33 -40 -63 -40 -68 0 -4 18 -33 41 -66 23 -32 39
-61 35 -64 -12 -12 -36 8 -69 57 l-34 50 -37 -55 c-24 -37 -43 -55 -57 -55
-18 0 -16 7 25 64 25 36 46 67 46 71 0 3 -18 30 -40 60 -45 61 -47 65 -22 65
9 0 32 -23 51 -51z"/>
<path d="M1190 2570 l0 -41 51 3 c96 6 96 70 0 76 l-51 3 0 -41z"/>
<path d="M1190 2455 l0 -45 49 0 c32 0 55 6 65 16 38 37 5 74 -65 74 l-49 0 0
-45z"/>
<path d="M1470 2570 l0 -41 51 3 c96 6 96 70 0 76 l-51 3 0 -41z"/>
<path d="M1470 2455 l0 -45 49 0 c32 0 55 6 65 16 38 37 5 74 -65 74 l-49 0 0
-45z"/>
<path d="M2861 2603 c12 -21 31 -50 40 -64 18 -26 18 -26 -27 -92 l-44 -67 44
0 c40 0 46 3 67 36 l22 37 19 -23 c10 -13 22 -30 27 -37 5 -10 21 -13 49 -11
l42 3 -23 35 c-13 19 -32 49 -42 66 l-18 31 37 57 c20 31 36 59 36 61 0 3 -18
5 -39 5 -34 0 -42 -5 -61 -36 l-22 -35 -25 35 c-21 31 -29 36 -64 36 l-41 0
23 -37z"/>
<path d="M3140 2510 l0 -130 40 0 40 0 0 50 c0 38 4 50 15 50 8 0 26 -22 40
-50 24 -47 27 -50 65 -50 22 0 40 3 40 6 0 3 -14 32 -30 63 l-31 57 26 57 c14
32 25 62 25 67 0 6 -17 10 -38 10 -35 0 -39 -3 -52 -42 -11 -31 -21 -44 -37
-46 -21 -3 -23 1 -23 42 l0 46 -40 0 -40 0 0 -130z"/>
<path d="M3420 2510 l0 -130 80 0 c94 0 134 16 144 56 5 20 2 35 -12 54 -17
23 -18 28 -6 45 21 29 17 61 -12 84 -22 17 -41 21 -110 21 l-84 0 0 -130z
m138 53 c3 -20 -1 -23 -27 -23 -27 0 -31 4 -31 26 0 22 4 25 28 22 19 -2 28
-9 30 -25z m10 -88 c13 -13 -11 -35 -38 -35 -26 0 -30 4 -30 26 0 24 3 26 32
20 17 -3 34 -8 36 -11z"/>
<path d="M3690 2510 l0 -130 75 0 c47 0 87 6 104 15 46 23 54 65 21 100 -18
20 -19 23 -5 35 16 13 20 57 7 76 -15 24 -54 34 -126 34 l-76 0 0 -130z m127
69 c18 -18 3 -39 -28 -39 -24 0 -29 4 -29 25 0 19 5 25 23 25 13 0 28 -5 34
-11z m-3 -95 c9 -3 16 -15 16 -25 0 -15 -7 -19 -35 -19 -31 0 -35 3 -35 25 0
26 19 32 54 19z"/>
</g>
</svg>
